<?xml version="1.0" encoding="UTF-8"?>
<svg version="1.1" xmlns="http://www.w3.org/2000/svg" width="1024" height="1024">
<path d="M0 0 C0.33 0.66 0.66 1.32 1 2 C3.87693965 2.55176844 3.87693965 2.55176844 7.38671875 2.81640625 C8.04017776 2.87779282 8.69363678 2.93917938 9.36689758 3.00242615 C11.47306415 3.19792968 13.58015341 3.38020525 15.6875 3.5625 C17.05801932 3.6886234 18.42846335 3.81556775 19.79882812 3.94335938 C27.59926468 4.6604443 35.39889888 5.25660591 43.21801758 5.73413086 C46 6 46 6 49 7 C54.6763463 8.66951362 60.39070957 10.16813449 66.125 11.625 C67.00542969 11.85445312 67.88585937 12.08390625 68.79296875 12.3203125 C69.64761719 12.536875 70.50226562 12.7534375 71.3828125 12.9765625 C72.14996582 13.17330566 72.91711914 13.37004883 73.70751953 13.57275391 C76.03773974 14.08856484 76.03773974 14.08856484 78.60107422 13.93896484 C81 14 81 14 84 16 C85.9896995 16.39013716 87.99019869 16.73202649 90 17 C90 17.66 90 18.32 90 19 C90.845625 19.12375 91.69125 19.2475 92.5625 19.375 C98.81873074 20.5124965 104.72211717 22.28593722 110.375 25.1875 C114.14916024 27.09894701 117.95278943 28.89340033 121.8125 30.625 C128.99874139 33.90399158 135.95784559 37.59412977 142.92895508 41.30517578 C143.80060303 41.76778809 144.67225098 42.23040039 145.5703125 42.70703125 C146.35164551 43.1244458 147.13297852 43.54186035 147.93798828 43.97192383 C150.10736358 45.11372976 150.10736358 45.11372976 153 46 C154.3375594 47.32909383 155.67029806 48.66304514 157 50 C158.765013 51.226766 160.55983557 52.41123818 162.375 53.5625 C167.25796487 56.75982221 171.91240202 60.14217756 176.5 63.75 C177.08700684 64.20963135 177.67401367 64.6692627 178.27880859 65.14282227 C181.37543763 67.60106794 184.27155303 70.13780563 187 73 C182.55157984 78.92169115 177.84497188 84.49163215 172.8203125 89.93359375 C170.95891382 91.86913199 170.95891382 91.86913199 170 94 C169.34 94 168.68 94 168 94 C167.75378906 94.56460938 167.50757813 95.12921875 167.25390625 95.7109375 C165.78145746 98.39895928 164.01695721 100.37317156 161.9375 102.625 C160.73867187 103.93404297 160.73867187 103.93404297 159.515625 105.26953125 C158.68546875 106.17058594 157.8553125 107.07164062 157 108 C155.39297474 109.76823958 153.78870084 111.5389845 152.1875 113.3125 C151.47980469 114.09238281 150.77210938 114.87226563 150.04296875 115.67578125 C145.76708981 120.38198946 145.76708981 120.38198946 143 126 C141.58141792 127.18215174 140.15935989 128.36041896 138.71875 129.515625 C135.44926473 132.33927137 132.78244652 135.70743828 130 139 C128.04470117 141.29426487 126.0849752 143.58472984 124.125 145.875 C123.60993896 146.47803955 123.09487793 147.0810791 122.56420898 147.70239258 C118.73189821 152.17834353 114.82103885 156.56959262 110.83984375 160.9140625 C109.11087946 162.87428953 107.53524117 164.88605422 106 167 C101.15853891 165.53289058 97.44051028 162.6487256 94 159 C94 158.34 94 157.68 94 157 C93.47277344 156.77570313 92.94554687 156.55140625 92.40234375 156.3203125 C89.15874455 154.53765148 86.41811262 152.20714281 83.5625 149.875 C77.02039689 144.62540966 70.2424304 140.22392089 63 136 C62.13117187 135.44699219 61.26234375 134.89398438 60.3671875 134.32421875 C57.29982403 132.6083174 54.46800964 132.34000095 51 132 C51 131.34 51 130.68 51 130 C36.72063039 124.4745048 22.4915602 118.9927562 7.0390625 118.17578125 C5 118 5 118 3 117 C0.9625237 116.77141886 -1.08040303 116.58975722 -3.125 116.4375 C-4.76855469 116.31181641 -4.76855469 116.31181641 -6.4453125 116.18359375 C-7.28835938 116.12300781 -8.13140625 116.06242187 -9 116 C-9 116.66 -9 117.32 -9 118 C-9.99 118 -10.98 118 -12 118 C-12 117.34 -12 116.68 -12 116 C-20.415 116.495 -20.415 116.495 -29 117 C-29 117.33 -29 117.66 -29 118 C-30.24394531 117.98839844 -31.48789062 117.97679687 -32.76953125 117.96484375 C-45.96971626 117.50829104 -45.96971626 117.50829104 -59 119 C-59.33 119.66 -59.66 120.32 -60 121 C-61.65234375 121.421875 -61.65234375 121.421875 -63.9375 121.75 C-75.36265302 123.86878729 -86.40525486 127.94517904 -96.8125 133.0625 C-97.78920654 133.53647217 -97.78920654 133.53647217 -98.78564453 134.02001953 C-101.90025849 135.6161876 -104.17368915 137.17677696 -106.63671875 139.68359375 C-109 142 -109 142 -111.3046875 142.4453125 C-115.65390297 143.34036844 -118.66909284 146.18707221 -122.125 148.875 C-122.84042969 149.41769531 -123.55585938 149.96039063 -124.29296875 150.51953125 C-128.1138821 153.41000748 -128.1138821 153.41000748 -131.60107422 156.68017578 C-133 158 -133 158 -135 158 C-135.23976563 158.57363281 -135.47953125 159.14726562 -135.7265625 159.73828125 C-137.25515819 162.45317973 -139.07496342 164.08471575 -141.375 166.1875 C-148.33954105 173.00063798 -153.61162209 180.92159084 -159 189 C-159.598125 189.87398437 -160.19625 190.74796875 -160.8125 191.6484375 C-171.2360094 207.79354717 -180.882022 232.49751366 -180 252 C-179.67 252.66 -179.34 253.32 -179 254 C-51.95 253.67 75.1 253.34 206 253 C205.01 251.68 204.02 250.36 203 249 C202.03606136 247.28543127 201.10018225 245.55489339 200.1875 243.8125 C197.40648527 238.64678222 194.31569162 233.83277694 191 229 C189.53919814 226.81408997 188.08067981 224.62680898 186.625 222.4375 C185.93664062 221.40496094 185.24828125 220.37242187 184.5390625 219.30859375 C184.03117188 218.54675781 183.52328125 217.78492188 183 217 C186.94428887 215.68523704 189.53147852 216.84500525 193.33520508 218.0703125 C194.08059036 218.30276169 194.82597565 218.53521088 195.59394836 218.77470398 C198.07185679 219.54976558 200.54560453 220.33733033 203.01953125 221.125 C204.75592145 221.67092364 206.49255389 222.21607731 208.22941589 222.76049805 C212.8249683 224.20331272 217.41709079 225.6567626 222.00860596 227.11236572 C226.5955008 228.56444809 231.18558497 230.00636933 235.77539062 231.44921875 C248.30432858 235.39076672 260.82843409 239.34756854 273.34130859 243.33984375 C274.37841476 243.67072998 275.41552094 244.00161621 276.48405457 244.3425293 C278.29774315 244.92202722 280.111028 245.50279131 281.92378235 246.08520508 C285.2659258 247.15493706 288.59600427 248.15271322 292 249 C293.83828694 249.60093849 295.67116675 250.21853392 297.5 250.84765625 C298.551875 251.20537109 299.60375 251.56308594 300.6875 251.93164062 C302.89703046 252.68595556 305.10536802 253.44377376 307.3125 254.20507812 C308.364375 254.56150391 309.41625 254.91792969 310.5 255.28515625 C311.4590625 255.61394775 312.418125 255.94273926 313.40625 256.28149414 C316.19390011 257.17797383 316.19390011 257.17797383 320 257 C320 257.66 320 258.32 320 259 C321.28390625 259.26554687 322.5678125 259.53109375 323.890625 259.8046875 C329.81273065 261.11942278 335.50221891 263.0322411 341.24609375 264.96484375 C345.26573749 266.27883357 348.70893442 267.40119719 353 267 C353 267.66 353 268.32 353 269 C336.77670015 274.97910314 320.44921651 280.55314104 304 285.875 C303.08081787 286.17246124 302.16163574 286.46992249 301.21459961 286.77639771 C297.49390001 287.98023699 293.77315407 289.18393283 290.05227661 290.38722229 C281.24990031 293.23671921 272.46418524 296.13490334 263.6875 299.0625 C262.96534302 299.30333313 262.24318604 299.54416626 261.49914551 299.79229736 C249.72996662 303.72138236 237.98722795 307.72662449 226.25 311.75 C203.08829305 319.68805254 203.08829305 319.68805254 193.8125 322.8125 C192.83893555 323.14411133 191.86537109 323.47572266 190.86230469 323.81738281 C189.54794434 324.25775879 189.54794434 324.25775879 188.20703125 324.70703125 C187.4591333 324.9594458 186.71123535 325.21186035 185.94067383 325.47192383 C184 326 184 326 181 326 C182.62922672 320.89106684 185.72108696 317.00319086 188.875 312.75 C190.04890006 311.1450598 191.22205888 309.53957722 192.39453125 307.93359375 C192.99217285 307.11745605 193.58981445 306.30131836 194.20556641 305.46044922 C197.02158872 301.59924202 199.79801455 297.71071074 202.5625 293.8125 C203.05024902 293.1309082 203.53799805 292.44931641 204.04052734 291.74707031 C204.7339624 290.76818848 204.7339624 290.76818848 205.44140625 289.76953125 C205.84045166 289.20854736 206.23949707 288.64756348 206.65063477 288.06958008 C207.86929767 286.20046384 208.98223707 284.30981572 210.08433533 282.37065125 C211.03258934 280.70217888 211.03258934 280.70217888 212 279 C211.17629071 279.00037972 210.35258143 279.00075944 209.50391126 279.00115067 C160.72033399 279.02351255 111.93675727 279.04067836 63.15317591 279.05106533 C57.30003393 279.05231609 51.44689196 279.0536104 45.59375 279.05493164 C44.42845948 279.05519395 43.26316896 279.05545626 42.06256661 279.05572652 C23.17654348 279.06008178 4.29052339 279.06796855 -14.59549794 279.0771528 C-33.9639296 279.08649332 -53.33235968 279.09205646 -72.7007935 279.09408849 C-84.65905143 279.09546289 -96.61730078 279.099809 -108.57555607 279.10791647 C-116.76777603 279.11318883 -124.95999153 279.11480317 -133.15221307 279.11350138 C-137.88373707 279.11285877 -142.61524607 279.11386686 -147.34676743 279.11920547 C-151.6745071 279.12405303 -156.00222159 279.12432965 -160.3299624 279.12089889 C-161.89933729 279.12047455 -163.46871372 279.12175886 -165.03808555 279.12488318 C-167.16443293 279.12887173 -169.2906883 279.12674794 -171.41703415 279.12304783 C-172.6002427 279.12342755 -173.78345125 279.12380727 -175.0025146 279.1241985 C-177.52868513 279.01952857 -179.5987539 278.74416632 -182 278 C-176.96318205 310.58950779 -168.68094069 341.9294602 -146 367 C-145.236875 367.87011719 -144.47375 368.74023438 -143.6875 369.63671875 C-141.48888619 372.12130092 -139.25633774 374.56784373 -137 377 C-136.15888672 377.92232422 -136.15888672 377.92232422 -135.30078125 378.86328125 C-130.16444322 384.27322566 -124.19141855 388.85672901 -118 393 C-117.34 393 -116.68 393 -116 393 C-115.44699219 393.57105469 -114.89398438 394.14210938 -114.32421875 394.73046875 C-111.46128961 397.52603485 -108.28414258 399.38605888 -104.8125 401.3125 C-104.11705078 401.69986328 -103.42160156 402.08722656 -102.70507812 402.48632812 C-97.585634 405.27251353 -92.37331908 407.74412675 -87 410 C-86.3191333 410.29044189 -85.6382666 410.58088379 -84.93676758 410.88012695 C-80.27711519 412.76185494 -76.00609588 413.55302715 -71 414 C-71 414.66 -71 415.32 -71 416 C-31.06181562 423.94484803 10.05140447 425.33798218 48 408 C48.66 407.34 49.32 406.68 50 406 C51.99942554 405.33161241 53.99952364 404.66523588 56 404 C71.36929075 396.32497245 84.59286008 385.64127433 97.43408203 374.36035156 C99.92213709 372.19891676 102.46036006 370.10045408 105 368 C105.639375 368.639375 106.27875 369.27875 106.9375 369.9375 C107.38609375 370.38351562 107.8346875 370.82953125 108.296875 371.2890625 C109.62981525 372.62811716 110.95019188 373.97968059 112.265625 375.3359375 C113.06484375 376.15320313 113.8640625 376.97046875 114.6875 377.8125 C115.45449219 378.60269531 116.22148438 379.39289063 117.01171875 380.20703125 C118.8013283 382.22322996 118.8013283 382.22322996 121 382 C121.25394531 382.74636719 121.50789062 383.49273438 121.76953125 384.26171875 C123.07699072 387.1713349 124.37209222 388.651756 126.6875 390.8125 C129.43189914 393.44811215 132.02777777 396.10721582 134.5 399 C137.63479538 402.66329437 141.0062281 406.01162524 144.49609375 409.3359375 C146 411 146 411 146 413 C146.66 413 147.32 413 148 413 C149.24755859 414.26879883 149.24755859 414.26879883 150.7734375 416.14453125 C156.34178543 422.69188184 162.53057684 428.63602956 168.625 434.6875 C169.85179732 435.90926946 171.07836153 437.13127305 172.3046875 438.35351562 C174.55666986 440.59739624 176.80998637 442.83991744 179.06494141 445.08081055 C181.71534747 447.7151822 184.35897134 450.35622852 187 453 C178.51938266 461.65369117 178.51938266 461.65369117 173.9375 465.4375 C172.968125 466.283125 171.99875 467.12875 171 468 C171 468.66 171 469.32 171 470 C170.28328125 470.23976563 169.5665625 470.47953125 168.828125 470.7265625 C165.57102097 472.19315907 163.42713597 474.01147138 160.75 476.375 C129.19829155 503.41294415 75.89038716 537 33 537 C32.67 537.66 32.34 538.32 32 539 C30.03564453 539.36352539 30.03564453 539.36352539 27.5078125 539.53515625 C24.15930541 539.80619198 20.86916916 540.13416213 17.5546875 540.68359375 C-7.84919325 544.82247427 -33.34338272 545.69522757 -59 544 C-59.91136719 543.94328125 -60.82273437 543.8865625 -61.76171875 543.828125 C-83.27840324 542.39584948 -104.40778491 537.22514444 -125 531 C-125.97565918 530.70706055 -126.95131836 530.41412109 -127.95654297 530.11230469 C-159.70815831 520.37004199 -191.05515528 504.84853594 -217 484 C-217.928125 483.26265625 -218.85625 482.5253125 -219.8125 481.765625 C-225.22631981 477.40449238 -230.45587653 472.87397403 -235.58984375 468.1875 C-237.92581254 466.06733383 -240.30326875 464.0030269 -242.6875 461.9375 C-246.79409758 458.29125055 -250.75285439 454.44785862 -254 450 C-254 449.34 -254 448.68 -254 448 C-254.66 448 -255.32 448 -256 448 C-257.27758789 446.64575195 -257.27758789 446.64575195 -258.72265625 444.73828125 C-259.25648926 444.03848145 -259.79032227 443.33868164 -260.34033203 442.61767578 C-260.90864746 441.85696777 -261.47696289 441.09625977 -262.0625 440.3125 C-262.94204346 439.14436768 -262.94204346 439.14436768 -263.83935547 437.95263672 C-265.56990299 435.64255259 -267.28777948 433.32369102 -269 431 C-269.43328613 430.41428223 -269.86657227 429.82856445 -270.31298828 429.22509766 C-279.35171816 416.90578455 -287.02020489 403.54673913 -293.5625 389.75 C-293.88484619 389.07163086 -294.20719238 388.39326172 -294.53930664 387.69433594 C-296.45468847 383.53285141 -297.84558647 379.43386689 -299 375 C-300.32 374.67 -301.64 374.34 -303 374 C-302.34 373.34 -301.68 372.68 -301 372 C-301.21615967 371.38817871 -301.43231934 370.77635742 -301.6550293 370.14599609 C-305.98688153 357.78669816 -309.86630032 345.54734401 -312.4519043 332.69482422 C-312.63019775 331.82744629 -312.80849121 330.96006836 -312.9921875 330.06640625 C-313.14026855 329.30271729 -313.28834961 328.53902832 -313.44091797 327.75219727 C-313.62541504 327.17397217 -313.80991211 326.59574707 -314 326 C-314.66 325.67 -315.32 325.34 -316 325 C-315.73521851 323.70956787 -315.73521851 323.70956787 -315.46508789 322.39306641 C-314.99228394 318.94370719 -315.13501274 316.15745324 -315.55859375 312.7109375 C-315.76645508 310.92623047 -315.76645508 310.92623047 -315.97851562 309.10546875 C-316.12998047 307.87441406 -316.28144531 306.64335938 -316.4375 305.375 C-317.5206913 296.51080569 -318.17104957 287.93562958 -318 279 C-323.61 279 -329.22 279 -335 279 C-335.33 280.65 -335.66 282.3 -336 284 C-337.37597656 285.58642578 -337.37597656 285.58642578 -339.140625 286.9453125 C-339.79264893 287.45940674 -340.44467285 287.97350098 -341.11645508 288.50317383 C-342.17255981 289.30597778 -342.17255981 289.30597778 -343.25 290.125 C-344.71849067 291.27601463 -346.18592429 292.42837901 -347.65234375 293.58203125 C-348.38694824 294.15518066 -349.12155273 294.72833008 -349.87841797 295.31884766 C-352.92794001 297.73530437 -355.86865437 300.269392 -358.8125 302.8125 C-373.10653493 315.03551164 -373.10653493 315.03551164 -379 317 C-379.66 316.67 -380.32 316.34 -381 316 C-381.33 316.66 -381.66 317.32 -382 318 C-382.33 317.67 -382.66 317.34 -383 317 C-384.68183948 316.76712992 -386.3712416 316.58735834 -388.0625 316.4375 C-388.98160156 316.35371094 -389.90070313 316.26992188 -390.84765625 316.18359375 C-391.55792969 316.12300781 -392.26820313 316.06242187 -393 316 C-393.33 316.66 -393.66 317.32 -394 318 C-394 317.34 -394 316.68 -394 316 C-394.65613281 316.165 -395.31226563 316.33 -395.98828125 316.5 C-399.73775446 317.12248064 -403.40218432 317.0685125 -407.1875 317 C-412.24255007 316.69192307 -412.24255007 316.69192307 -417 318 C-419.3400417 317.71758117 -421.67504723 317.38749213 -424 317 C-424 316.01 -424 315.02 -424 314 C-422.0989844 312.32565558 -420.23331811 310.85245597 -418.1875 309.375 C-416.98852506 308.48188769 -415.79062598 307.58732945 -414.59375 306.69140625 C-413.98917969 306.24168457 -413.38460937 305.79196289 -412.76171875 305.32861328 C-404.86760742 299.37521058 -396.99913561 292.99913561 -390 286 C-388.63658441 284.94321603 -387.26036026 283.90284794 -385.875 282.875 C-385.15054688 282.33617187 -384.42609375 281.79734375 -383.6796875 281.2421875 C-382.84824219 280.62730469 -382.84824219 280.62730469 -382 280 C-385.01031744 279.06576355 -385.86650268 278.95550089 -389 280 C-390.33465724 279.84428999 -391.66790706 279.67630642 -393 279.5 C-399.97242778 279.42089628 -404.18324021 284.51118981 -409 289 C-410.66551773 290.50127561 -412.33215099 292.00131476 -414 293.5 C-415.22589844 294.61375 -415.22589844 294.61375 -416.4765625 295.75 C-419.9138574 298.81483261 -423.42635409 301.75896758 -427.05566406 304.59399414 C-429.98815546 306.89687687 -429.98815546 306.89687687 -432.32177734 309.38842773 C-440.72882938 317.27218201 -448.71203205 317.02675161 -459.76171875 316.79101562 C-461.92451415 316.7158435 -464.08727459 316.63965931 -466.25 316.5625 C-468.45955347 316.5172847 -470.66919626 316.47623259 -472.87890625 316.43945312 C-478.25457565 316.34099717 -483.6268648 316.19101764 -489 316 C-489 316.66 -489 317.32 -489 318 C-491.64 317.34 -494.28 316.68 -497 316 C-495.71689937 312.15069811 -493.39290151 310.75061782 -490.25 308.4375 C-489.05066171 307.53531514 -487.85144613 306.63296713 -486.65234375 305.73046875 C-486.03987793 305.27333496 -485.42741211 304.81620117 -484.79638672 304.34521484 C-482.11608157 302.33808228 -479.46470735 300.29405789 -476.8125 298.25 C-476.29155762 297.84982666 -475.77061523 297.44965332 -475.23388672 297.03735352 C-472.0005832 294.5516374 -468.77993452 292.05029651 -465.56640625 289.5390625 C-458.15239269 283.74754271 -450.7544022 277.9768942 -443.06640625 272.55078125 C-441.19779249 271.14843784 -439.59704505 269.69974892 -438 268 C-438.71542969 267.47792969 -439.43085938 266.95585937 -440.16796875 266.41796875 C-446.46839704 261.76396544 -452.55278237 256.95635644 -458.45776367 251.80737305 C-461.00197139 249.6072507 -463.54655459 247.59940409 -466.3828125 245.80078125 C-467.24648438 245.20652344 -468.11015625 244.61226562 -469 244 C-469 243.34 -469 242.68 -469 242 C-469.53109375 241.77699219 -470.0621875 241.55398438 -470.609375 241.32421875 C-473.82450207 239.54329052 -476.48415668 237.20624236 -479.25 234.8125 C-479.82194092 234.32289795 -480.39388184 233.8332959 -480.9831543 233.32885742 C-485.34949898 229.58425363 -489.69290057 225.8126288 -494 222 C-491.56871496 219.56871496 -490.96277887 219.74582577 -487.63305664 219.73779297 C-486.72773697 219.73214325 -485.8224173 219.72649353 -484.8896637 219.72067261 C-483.41480751 219.73132248 -483.41480751 219.73132248 -481.91015625 219.7421875 C-480.89586044 219.74824005 -479.88156464 219.7542926 -478.83653259 219.76052856 C-476.68189215 219.77984843 -474.52730074 219.80549664 -472.37280273 219.83691406 C-469.10633909 219.87449562 -465.84274945 219.85957956 -462.57617188 219.84375 C-450.72713058 219.92329289 -442.76970034 220.29947179 -434 229 C-432.25701251 230.35603806 -430.49617744 231.68942901 -428.71875 233 C-426.97904976 234.33318079 -425.23946778 235.66651591 -423.5 237 C-421.65900632 238.3973359 -419.81786216 239.79447357 -417.9765625 241.19140625 C-415.14337975 243.34612462 -412.33657059 245.51832412 -409.5859375 247.77734375 C-401.80860154 253.97455814 -395.50470739 254.53323752 -385.8125 253.5625 C-384.554375 253.376875 -383.29625 253.19125 -382 253 C-390.29586776 245.8754757 -398.73915249 238.991276 -407.36621094 232.27246094 C-409.85413814 230.33476271 -412.33702102 228.39108312 -414.8125 226.4375 C-415.60269531 225.81746094 -416.39289063 225.19742188 -417.20703125 224.55859375 C-419 223 -419 223 -420 221 C-413.6878245 220.74394799 -407.37701094 220.57031803 -401.06079102 220.45068359 C-398.91802955 220.4007583 -396.77560235 220.33278817 -394.6340332 220.24560547 C-374.00329635 219.42749834 -374.00329635 219.42749834 -366.35546875 225.7890625 C-364.54440578 227.4990129 -362.7569272 229.23447281 -361 231 C-359.19147498 232.36679411 -357.36142547 233.70617462 -355.5 235 C-351.28508986 238.04341305 -347.12708023 241.15162584 -343 244.3125 C-342.44763672 244.73337891 -341.89527344 245.15425781 -341.32617188 245.58789062 C-335.86846059 249.78769076 -335.86846059 249.78769076 -334 252 C-334 252.66 -334 253.32 -334 254 C-328.72 254 -323.44 254 -318 254 C-317.87044922 251.94458984 -317.87044922 251.94458984 -317.73828125 249.84765625 C-316.88190238 237.78574146 -315.28655408 226.15381058 -312.67700195 214.34008789 C-311.53358331 209.09795975 -310.71348741 204.36834111 -311 199 C-310.34 199 -309.68 199 -309 199 C-308.87882813 198.36191406 -308.75765625 197.72382813 -308.6328125 197.06640625 C-308.38144531 195.82697266 -308.38144531 195.82697266 -308.125 194.5625 C-307.88136719 193.32693359 -307.88136719 193.32693359 -307.6328125 192.06640625 C-307.42398438 191.38449219 -307.21515625 190.70257813 -307 190 C-306.34 189.67 -305.68 189.34 -305 189 C-304.88269531 188.2059375 -304.76539063 187.411875 -304.64453125 186.59375 C-303.74058565 181.55356849 -301.74011309 177.17304526 -299.6875 172.5 C-299.24744629 171.49477295 -298.80739258 170.4895459 -298.35400391 169.45385742 C-291.59420902 154.30988492 -283.75793859 139.44187489 -274 126 C-273.32735107 125.06897461 -273.32735107 125.06897461 -272.64111328 124.11914062 C-266.50418924 115.661395 -260.12582677 107.65469673 -253 100 C-251.89158321 98.71197864 -250.78727495 97.42040799 -249.6875 96.125 C-241.5605652 86.83439324 -232.69909522 78.61977766 -223 71 C-221.96605419 70.15404434 -220.93355392 69.30631948 -219.90234375 68.45703125 C-207.05881591 57.98238256 -193.11821888 48.77467411 -178.3359375 41.26953125 C-175.89913499 40.08822061 -175.89913499 40.08822061 -174 38 C-173.34 38 -172.68 38 -172 38 C-171.34 37.01 -170.68 36.02 -170 35 C-169.01 35 -168.02 35 -167 35 C-162.08387715 33.16059536 -162.08387715 33.16059536 -158 30 C-156.11938477 29.26269531 -156.11938477 29.26269531 -153.87890625 28.578125 C-150.8775631 27.62296176 -147.94132454 26.61773099 -145.02734375 25.421875 C-132.6119275 20.33187303 -119.9485474 16.49292655 -107 13 C-106.11441406 12.76007324 -105.22882813 12.52014648 -104.31640625 12.27294922 C-82.80989153 6.54851731 -60.11064597 2.70798623 -37.8125 2.9375 C-36.95591797 2.94201172 -36.09933594 2.94652344 -35.21679688 2.95117188 C-33.14449967 2.96274895 -31.07223942 2.98067341 -29 3 C-28.67 2.34 -28.34 1.68 -28 1 C-12.33883112 0.82705458 -12.33883112 0.82705458 -6.6875 1.625 C-2.9161599 2.40346525 -2.9161599 2.40346525 0 0 Z " fill="#C7E6FE" transform="translate(591,234)"/>
<path d="M0 0 C7.44579629 1.28865621 14.46204924 3.30562792 21.625 5.6875 C24.0839783 6.4916759 26.54346286 7.29408642 29.00390625 8.09375 C30.01991158 8.42447762 30.01991158 8.42447762 31.05644226 8.7618866 C41.53000702 12.15989257 52.05022079 15.4117765 62.5625 18.6875 C65.60045685 19.63443896 68.63838995 20.58145393 71.67626953 21.52864075 C73.62932783 22.13756852 75.58245179 22.74628571 77.53564453 23.3547821 C82.2102821 24.81234291 86.8825793 26.27675054 91.55029297 27.75634766 C92.42282211 28.03291702 93.29535126 28.30948639 94.19432068 28.59443665 C95.82527213 29.11215278 97.45588065 29.63095102 99.08607483 30.15104675 C102.37446665 31.19545141 105.65346583 32.16584764 109 33 C110.83828694 33.60093849 112.67116675 34.21853392 114.5 34.84765625 C115.551875 35.20537109 116.60375 35.56308594 117.6875 35.93164062 C119.89703046 36.68595556 122.10536802 37.44377376 124.3125 38.20507812 C125.364375 38.56150391 126.41625 38.91792969 127.5 39.28515625 C128.4590625 39.61394775 129.418125 39.94273926 130.40625 40.28149414 C133.19390011 41.17797383 133.19390011 41.17797383 137 41 C137 41.66 137 42.32 137 43 C138.28390625 43.26554687 139.5678125 43.53109375 140.890625 43.8046875 C146.81273065 45.11942278 152.50221891 47.0322411 158.24609375 48.96484375 C162.26573749 50.27883357 165.70893442 51.40119719 170 51 C170 51.66 170 52.32 170 53 C153.77670015 58.97910314 137.44921651 64.55314104 121 69.875 C120.08081787 70.17246124 119.16163574 70.46992249 118.21459961 70.77639771 C114.49390001 71.98023699 110.77315407 73.18393283 107.05227661 74.38722229 C98.24990031 77.23671921 89.46418524 80.13490334 80.6875 83.0625 C79.96534302 83.30333313 79.24318604 83.54416626 78.49914551 83.79229736 C66.72996662 87.72138236 54.98722795 91.72662449 43.25 95.75 C20.08829305 103.68805254 20.08829305 103.68805254 10.8125 106.8125 C9.83893555 107.14411133 8.86537109 107.47572266 7.86230469 107.81738281 C6.98606445 108.1109668 6.10982422 108.40455078 5.20703125 108.70703125 C4.4591333 108.9594458 3.71123535 109.21186035 2.94067383 109.47192383 C1 110 1 110 -2 110 C-0.37077328 104.89106684 2.72108696 101.00319086 5.875 96.75 C7.04890006 95.1450598 8.22205888 93.53957722 9.39453125 91.93359375 C9.99217285 91.11745605 10.58981445 90.30131836 11.20556641 89.46044922 C14.02158872 85.59924202 16.79801455 81.71071074 19.5625 77.8125 C20.05024902 77.1309082 20.53799805 76.44931641 21.04052734 75.74707031 C21.7339624 74.76818848 21.7339624 74.76818848 22.44140625 73.76953125 C22.84045166 73.20854736 23.23949707 72.64756348 23.65063477 72.06958008 C24.86929767 70.20046384 25.98223707 68.30981572 27.08433533 66.37065125 C27.71650467 65.25833633 28.34867401 64.14602142 29 63 C28.17667044 63.00037972 27.35334087 63.00075944 26.50506192 63.00115067 C-22.26187712 63.02351517 -71.02881562 63.04067969 -119.79575877 63.05106533 C-125.64761197 63.05231608 -131.49946517 63.0536104 -137.35131836 63.05493164 C-138.51634657 63.05519395 -139.68137478 63.05545626 -140.88170687 63.05572652 C-159.76058791 63.06008114 -178.63946591 63.06796756 -197.51834514 63.0771528 C-216.88113157 63.0864951 -236.24391641 63.09205684 -255.60670501 63.09408849 C-267.56035361 63.09546252 -279.51399364 63.09980663 -291.4676396 63.10791647 C-299.65799792 63.11319103 -307.84835179 63.11480267 -316.03871169 63.11350138 C-320.76833434 63.11285912 -325.49794196 63.11386297 -330.22756195 63.11920547 C-334.55473715 63.12405783 -338.88188717 63.12432648 -343.20906351 63.12089889 C-344.7771103 63.12047502 -346.34515864 63.12175527 -347.91320237 63.12488318 C-350.04016139 63.12888038 -352.16702879 63.12674257 -354.29398632 63.12304783 C-356.06822956 63.12361741 -356.06822956 63.12361741 -357.8783161 63.1241985 C-361 63 -361 63 -366 62 C-366 51.77 -366 41.54 -366 31 C-365.67 31 -365.34 31 -365 31 C-365 33.31 -365 35.62 -365 38 C-364.34 38 -363.68 38 -363 38 C-362.67 37.34 -362.34 36.68 -362 36 C-362 36.66 -362 37.32 -362 38 C-234.95 37.67 -107.9 37.34 23 37 C22.01 35.68 21.02 34.36 20 33 C19.03606136 31.28543127 18.10018225 29.55489339 17.1875 27.8125 C14.40674585 22.64726626 11.31920302 17.83006666 8 13 C6.53784772 10.83590867 5.07963673 8.66915019 3.625 6.5 C2.93664062 5.4790625 2.24828125 4.458125 1.5390625 3.40625 C0 1 0 1 0 0 Z " fill="#FDFEFE" transform="translate(774,450)"/>
<path d="M0 0 C6.63518118 -0.06022875 13.26827025 -0.05728311 19.90356445 -0.01220703 C22.15648819 -0.00413955 24.40951032 -0.01007385 26.66235352 -0.03076172 C49.20153946 -0.2203763 49.20153946 -0.2203763 56.76245117 6.75390625 C57.50084229 7.49511719 58.2392334 8.23632812 59 9 C60.74221262 10.35703345 62.50309717 11.69041337 64.28125 13 C66.02095024 14.33318079 67.76053222 15.66651591 69.5 17 C71.34099368 18.3973359 73.18213784 19.79447357 75.0234375 21.19140625 C77.85662025 23.34612462 80.66342941 25.51832412 83.4140625 27.77734375 C91.19139846 33.97455814 97.49529261 34.53323752 107.1875 33.5625 C109.0746875 33.2840625 109.0746875 33.2840625 111 33 C102.70413224 25.8754757 94.26084751 18.991276 85.63378906 12.27246094 C83.14586186 10.33476271 80.66297898 8.39108312 78.1875 6.4375 C77.39730469 5.81746094 76.60710937 5.19742187 75.79296875 4.55859375 C74 3 74 3 73 1 C79.3121755 0.74394799 85.62298906 0.57031803 91.93920898 0.45068359 C94.08197045 0.4007583 96.22439765 0.33278817 98.3659668 0.24560547 C118.99670365 -0.57250166 118.99670365 -0.57250166 126.64453125 5.7890625 C128.45559422 7.4990129 130.2430728 9.23447281 132 11 C133.80852502 12.36679411 135.63857453 13.70617462 137.5 15 C141.71491014 18.04341305 145.87291977 21.15162584 150 24.3125 C150.82854492 24.94381836 150.82854492 24.94381836 151.67382812 25.58789062 C157.13153941 29.78769076 157.13153941 29.78769076 159 32 C159 32.66 159 33.32 159 34 C164.28 34 169.56 34 175 34 C176.24497833 36.48995665 176.12934372 38.18994911 176.1328125 40.97265625 C176.13410156 41.95427734 176.13539063 42.93589844 176.13671875 43.94726562 C176.13285156 44.97529297 176.12898437 46.00332031 176.125 47.0625 C176.12886719 48.09439453 176.13273438 49.12628906 176.13671875 50.18945312 C176.13478516 51.65995117 176.13478516 51.65995117 176.1328125 53.16015625 C176.13168457 54.06386963 176.13055664 54.96758301 176.12939453 55.89868164 C176 58 176 58 175 59 C172.13732433 59.07325168 169.299281 59.09238205 166.4375 59.0625 C165.63119141 59.05798828 164.82488281 59.05347656 163.99414062 59.04882812 C161.99606244 59.03700518 159.99802217 59.01906914 158 59 C157.98453125 59.69867187 157.9690625 60.39734375 157.953125 61.1171875 C156.5023706 65.50512499 153.348671 67.38945 149.75 70.125 C148.28150933 71.27601463 146.81407571 72.42837901 145.34765625 73.58203125 C144.61305176 74.15518066 143.87844727 74.72833008 143.12158203 75.31884766 C140.07205999 77.73530437 137.13134563 80.269392 134.1875 82.8125 C119.89346507 95.03551164 119.89346507 95.03551164 114 97 C113.34 96.67 112.68 96.34 112 96 C111.67 96.66 111.34 97.32 111 98 C110.67 97.67 110.34 97.34 110 97 C108.31816052 96.76712992 106.6287584 96.58735834 104.9375 96.4375 C103.55884766 96.31181641 103.55884766 96.31181641 102.15234375 96.18359375 C101.44207031 96.12300781 100.73179687 96.06242188 100 96 C99.67 96.66 99.34 97.32 99 98 C99 97.34 99 96.68 99 96 C98.34386719 96.165 97.68773437 96.33 97.01171875 96.5 C93.26224554 97.12248064 89.59781568 97.0685125 85.8125 97 C80.75744993 96.69192307 80.75744993 96.69192307 76 98 C73.6599583 97.71758117 71.32495277 97.38749213 69 97 C69 96.01 69 95.02 69 94 C70.9010156 92.32565558 72.76668189 90.85245597 74.8125 89.375 C76.01147494 88.48188769 77.20937402 87.58732945 78.40625 86.69140625 C79.31310547 86.01682373 79.31310547 86.01682373 80.23828125 85.32861328 C88.13239258 79.37521058 96.00086439 72.99913561 103 66 C104.36341559 64.94321603 105.73963974 63.90284794 107.125 62.875 C107.84945312 62.33617187 108.57390625 61.79734375 109.3203125 61.2421875 C109.87460938 60.83226562 110.42890625 60.42234375 111 60 C107.98968256 59.06576355 107.13349732 58.95550089 104 60 C102.66534276 59.84428999 101.33209294 59.67630642 100 59.5 C93.02757222 59.42089628 88.81675979 64.51118981 84 69 C82.33448227 70.50127561 80.66784901 72.00131476 79 73.5 C78.18273437 74.2425 77.36546875 74.985 76.5234375 75.75 C73.0861426 78.81483261 69.57364591 81.75896758 65.94433594 84.59399414 C63.01184454 86.89687687 63.01184454 86.89687687 60.67822266 89.38842773 C52.27117062 97.27218201 44.28796795 97.02675161 33.23828125 96.79101562 C31.07548585 96.7158435 28.91272541 96.63965931 26.75 96.5625 C24.54044653 96.5172847 22.33080374 96.47623259 20.12109375 96.43945312 C14.74542435 96.34099717 9.3731352 96.19101764 4 96 C4 96.66 4 97.32 4 98 C1.36 97.34 -1.28 96.68 -4 96 C-2.71689937 92.15069811 -0.39290151 90.75061782 2.75 88.4375 C3.94933829 87.53531514 5.14855387 86.63296713 6.34765625 85.73046875 C6.96012207 85.27333496 7.57258789 84.81620117 8.20361328 84.34521484 C10.88391843 82.33808228 13.53529265 80.29405789 16.1875 78.25 C16.96891357 77.64973999 16.96891357 77.64973999 17.76611328 77.03735352 C20.9994168 74.5516374 24.22006548 72.05029651 27.43359375 69.5390625 C34.84760731 63.74754271 42.2455978 57.9768942 49.93359375 52.55078125 C51.80220751 51.14843784 53.40295495 49.69974892 55 48 C54.28457031 47.47792969 53.56914062 46.95585937 52.83203125 46.41796875 C46.53160296 41.76396544 40.44721763 36.95635644 34.54223633 31.80737305 C31.99802861 29.6072507 29.45344541 27.59940409 26.6171875 25.80078125 C25.75351563 25.20652344 24.88984375 24.61226563 24 24 C24 23.34 24 22.68 24 22 C23.20335937 21.66548828 23.20335937 21.66548828 22.390625 21.32421875 C19.17549793 19.54329052 16.51584332 17.20624236 13.75 14.8125 C13.17805908 14.32289795 12.60611816 13.8332959 12.0168457 13.32885742 C7.65050102 9.58425363 3.30709943 5.8126288 -1 2 C-0.67 1.34 -0.34 0.68 0 0 Z " fill="#FEFEFE" transform="translate(98,454)"/>
<path d="M0 0 C5.01300667 -0.05012236 10.02586167 -0.08605439 15.0390625 -0.10986328 C16.73798164 -0.11980786 18.43688419 -0.13336831 20.13574219 -0.15087891 C29.6085586 -0.24594259 38.68739198 -0.06675148 48.04492188 1.5546875 C52.3717453 2.20671377 56.63712321 2.18094881 61 2 C61.495 2.99 61.495 2.99 62 4 C63.76183161 4.62208251 63.76183161 4.62208251 65.90234375 5 C66.70591309 5.16387207 67.50948242 5.32774414 68.33740234 5.49658203 C69.19543457 5.66270996 70.0534668 5.82883789 70.9375 6 C71.8032666 6.17515137 72.6690332 6.35030273 73.56103516 6.53076172 C77.13970249 7.25214253 80.72294805 7.94701013 84.30859375 8.6328125 C88.45128118 9.4273005 92.09253734 10.37189056 96 12 C97.9924325 12.37593066 99.9918674 12.71979545 102 13 C102 13.66 102 14.32 102 15 C103.2684375 15.185625 103.2684375 15.185625 104.5625 15.375 C110.81873074 16.5124965 116.72211717 18.28593722 122.375 21.1875 C126.14916024 23.09894701 129.95278943 24.89340033 133.8125 26.625 C139.98469577 29.47086272 146.06910285 32.47707994 152.125 35.5625 C153.05030518 36.02156738 153.97561035 36.48063477 154.92895508 36.95361328 C163.00602146 41.12092861 163.00602146 41.12092861 165 46 C162.0280615 44.87548273 159.66559313 43.77706209 157 42 C157 41.34 157 40.68 157 40 C155.948125 39.731875 154.89625 39.46375 153.8125 39.1875 C150.39507415 38.12305588 148.00407554 36.86739831 145 35 C142.80869466 34.30420546 142.80869466 34.30420546 141 34 C141 33.34 141 32.68 141 32 C139.865625 31.649375 138.73125 31.29875 137.5625 30.9375 C132.7753348 29.35189378 128.14993312 27.44244758 123.5 25.5 C117.72313826 23.09514416 111.98747553 20.83112116 106 19 C104.81148437 18.62230469 103.62296875 18.24460937 102.3984375 17.85546875 C94.66261115 15.40163642 86.90330904 13.07633922 79.0859375 10.89453125 C77.0079389 10.29217469 74.94566263 9.63304273 72.90234375 8.921875 C70.24761639 8.0786507 67.95118058 7.65878277 65.1875 7.4375 C61.10218978 7.10218978 61.10218978 7.10218978 60 6 C58.29612567 5.80899629 56.58589908 5.67427874 54.875 5.5625 C50.26609318 5.22632008 45.73193596 4.70384719 41.16015625 4.03515625 C32.65246861 2.84998641 24.13468652 2.33969426 15.5625 1.875 C14.04098598 1.78827906 12.51950129 1.70104178 10.99804688 1.61328125 C7.33234831 1.40293319 3.66630902 1.19946158 0 1 C0 0.67 0 0.34 0 0 Z " fill="#E4F4FC" transform="translate(579,238)"/>
<path d="M0 0 C1.37255531 0.13254289 2.74847987 0.23084203 4.125 0.3125 C23.21702205 2.1451153 41.22359078 10.12630445 58 19 C57.67 19.66 57.34 20.32 57 21 C56.360625 20.71125 55.72125 20.4225 55.0625 20.125 C51.11589708 18.6752275 47.1125393 17.84221938 43 17 C43 16.34 43 15.68 43 15 C28.72063039 9.4745048 14.4915602 3.9927562 -0.9609375 3.17578125 C-3 3 -3 3 -5 2 C-7.0374763 1.77141886 -9.08040303 1.58975722 -11.125 1.4375 C-12.76855469 1.31181641 -12.76855469 1.31181641 -14.4453125 1.18359375 C-15.70988281 1.09271484 -15.70988281 1.09271484 -17 1 C-17 1.66 -17 2.32 -17 3 C-17.99 3 -18.98 3 -20 3 C-20 2.34 -20 1.68 -20 1 C-28.415 1.495 -28.415 1.495 -37 2 C-37 2.33 -37 2.66 -37 3 C-38.86591797 2.98259766 -38.86591797 2.98259766 -40.76953125 2.96484375 C-53.96971626 2.50829104 -53.96971626 2.50829104 -67 4 C-67.33 4.66 -67.66 5.32 -68 6 C-70.31 5.67 -72.62 5.34 -75 5 C-60.2378842 -4.84141053 -15.1872859 -7.59364295 0 0 Z " fill="#DBF0FC" transform="translate(599,349)"/>
<path d="M0 0 C-0.33 0.66 -0.66 1.32 -1 2 C-1.65669678 1.98952637 -2.31339355 1.97905273 -2.98999023 1.96826172 C-15.57271957 1.79605979 -28.07465755 1.8800349 -40.625 2.875 C-42.15918579 2.99270752 -42.15918579 2.99270752 -43.72436523 3.11279297 C-49.36145158 3.60061325 -54.53826577 4.54432652 -60 6 C-61.68235477 6.21240634 -63.37055776 6.38701554 -65.0625 6.5 C-69.25861624 6.86294177 -72.9498118 7.81287587 -77 9 C-78.78943732 9.28519157 -80.58148431 9.55419475 -82.375 9.8125 C-89.8035404 10.9834553 -96.86935023 13.19782277 -104.04125977 15.40283203 C-108.63995752 16.80485306 -113.23700714 18.11258615 -117.9375 19.125 C-118.70964844 19.29257812 -119.48179687 19.46015625 -120.27734375 19.6328125 C-120.84582031 19.75398438 -121.41429687 19.87515625 -122 20 C-119.4345406 17.4345406 -117.52313332 17.45953913 -114 17 C-114 16.34 -114 15.68 -114 15 C-76.0204679 2.20808606 -39.67296329 -0.2335183 0 0 Z " fill="#D5EDFB" transform="translate(578,238)"/>
<path d="M0 0 C0 3.93235469 -1.54945341 5.02964049 -4 8 C-4.33 8.99 -4.66 9.98 -5 11 C-6.41858208 12.18215174 -7.84064011 13.36041896 -9.28125 14.515625 C-12.55073527 17.33927137 -15.21755348 20.70743828 -18 24 C-19.95529883 26.29426487 -21.9150248 28.58472984 -23.875 30.875 C-24.39006104 31.47803955 -24.90512207 32.0810791 -25.43579102 32.70239258 C-29.26810179 37.17834353 -33.17896115 41.56959262 -37.16015625 45.9140625 C-38.88912054 47.87428953 -40.46475883 49.88605422 -42 52 C-42.66 51.67 -43.32 51.34 -44 51 C-42.58735645 49.08025364 -41.17008929 47.16422694 -39.75 45.25 C-39.35425781 44.71117187 -38.95851563 44.17234375 -38.55078125 43.6171875 C-36.73938454 41.1821952 -34.92878649 38.92978248 -32.765625 36.796875 C-30.76337696 35.02238229 -30.76337696 35.02238229 -30 32 C-28.6171875 30.74609375 -28.6171875 30.74609375 -26.875 29.4375 C-23.77635371 26.90282001 -21.66016141 24.26406675 -19.4375 20.9375 C-16.69400049 16.83752635 -13.88602968 14.07644017 -10 11 C-8.1469428 9.00012671 -6.37442299 6.94816878 -4.61328125 4.8671875 C-3.14080217 3.16296232 -1.61363306 1.56975784 0 0 Z " fill="#E1F3FC" transform="translate(739,349)"/>
<path d="M0 0 C-0.33 0.66 -0.66 1.32 -1 2 C-1.65669678 1.98952637 -2.31339355 1.97905273 -2.98999023 1.96826172 C-15.57271957 1.79605979 -28.07465755 1.8800349 -40.625 2.875 C-42.15918579 2.99270752 -42.15918579 2.99270752 -43.72436523 3.11279297 C-49.36145158 3.60061325 -54.53826577 4.54432652 -60 6 C-61.68235477 6.21240634 -63.37055776 6.38701554 -65.0625 6.5 C-68.19996097 6.75582374 -70.95015594 7.19802106 -73.9375 8.1875 C-74.948125 8.455625 -75.95875 8.72375 -77 9 C-77.99 8.34 -78.98 7.68 -80 7 C-77.77228658 6.49356447 -75.54275924 5.9951038 -73.3125 5.5 C-71.45044922 5.08234375 -71.45044922 5.08234375 -69.55078125 4.65625 C-66.57601782 4.10645874 -64.00631398 3.86204295 -61 4 C-61 3.34 -61 2.68 -61 2 C-55.70641511 1.16454032 -50.4766414 0.69557004 -45.125 0.4375 C-44.25528564 0.3950415 -43.38557129 0.35258301 -42.48950195 0.30883789 C-28.33977314 -0.28971647 -14.1588372 -0.08334007 0 0 Z " fill="#E2F5FD" transform="translate(578,238)"/>
<path d="M0 0 C1.32 0.33 2.64 0.66 4 1 C-0.44842016 6.92169115 -5.15502812 12.49163215 -10.1796875 17.93359375 C-12.04108618 19.86913199 -12.04108618 19.86913199 -13 22 C-13.66 22 -14.32 22 -15 22 C-15.23976563 22.55816406 -15.47953125 23.11632812 -15.7265625 23.69140625 C-17.27704087 26.50224281 -19.19281874 28.5849491 -21.375 30.9375 C-23.75115587 33.50835761 -26.03010472 36.03917961 -28.1640625 38.81640625 C-28.76992188 39.53699219 -29.37578125 40.25757813 -30 41 C-30.66 41 -31.32 41 -32 41 C-29.81765232 34.25456172 -24.88542177 29.88542177 -20 25 C-18.57189667 23.46892148 -17.1560194 21.92638326 -15.75 20.375 C-15.06421875 19.61960937 -14.3784375 18.86421875 -13.671875 18.0859375 C-11.81127426 16.01142571 -11.81127426 16.01142571 -11 13 C-10.39671875 12.7009375 -9.7934375 12.401875 -9.171875 12.09375 C-6.39940351 10.69754134 -5.11963405 8.96088584 -3.25 6.5 C-2.63640625 5.7059375 -2.0228125 4.911875 -1.390625 4.09375 C0.1844216 2.14124635 0.1844216 2.14124635 0 0 Z " fill="#E4F3FB" transform="translate(774,306)"/>
<path d="M0 0 C0.495 0.99 0.495 0.99 1 2 C4.01433291 2.39298401 4.01433291 2.39298401 7.5 2.5 C11.09375 2.65625 11.09375 2.65625 14 3 C14.495 3.99 14.495 3.99 15 5 C-9.42 5 -33.84 5 -59 5 C-59 4.67 -59 4.34 -59 4 C-49.01321644 2.74323623 -39.04368267 2.90632835 -29 3 C-28.67 2.34 -28.34 1.68 -28 1 C-12.33883112 0.82705458 -12.33883112 0.82705458 -6.6875 1.625 C-2.9161599 2.40346525 -2.9161599 2.40346525 0 0 Z " fill="#D4EAF9" transform="translate(591,234)"/>
<path d="M0 0 C0 0.66 0 1.32 0 2 C-0.99 2 -1.98 2 -3 2 C-3 2.66 -3 3.32 -3 4 C-4.82724609 4.70576172 -4.82724609 4.70576172 -6.69140625 5.42578125 C-8.31512952 6.05462205 -9.93882601 6.68353198 -11.5625 7.3125 C-12.76229492 7.7755957 -12.76229492 7.7755957 -13.98632812 8.24804688 C-15.1706543 8.70727539 -15.1706543 8.70727539 -16.37890625 9.17578125 C-17.55283936 9.62945068 -17.55283936 9.62945068 -18.75048828 10.09228516 C-20.81849424 10.92675945 -22.82169382 11.84613579 -24.83984375 12.79296875 C-27.92713371 13.9721685 -29.03325559 14.30536754 -32 13 C-9.88461538 0 -9.88461538 0 0 0 Z " fill="#D4EDFC" transform="translate(520,354)"/>
<path d="M0 0 C2.66666667 2.66666667 5.33333333 5.33333333 8 8 C7.67 8.99 7.34 9.98 7 11 C5.02 9.35 3.04 7.7 1 6 C-4.00918744 7.47329042 -6.51807722 10.27515238 -10 14 C-10.99 13.67 -11.98 13.34 -13 13 C-11.39979779 11.20465118 -9.79509897 9.41370539 -8.1875 7.625 C-7.73568359 7.11710938 -7.28386719 6.60921875 -6.81835938 6.0859375 C-4.64829248 3.67827204 -2.71407209 1.80938139 0 0 Z " fill="#D6EDFC" transform="translate(696,602)"/>
<path d="M0 0 C1.32 0.33 2.64 0.66 4 1 C4 1.66 4 2.32 4 3 C4.71285156 3.25136719 5.42570313 3.50273437 6.16015625 3.76171875 C11.29734723 6.00173187 15.56135611 9.6206518 20 13 C20.99580078 13.75796875 20.99580078 13.75796875 22.01171875 14.53125 C24.65932612 16.63395028 25.90728618 17.72185855 27 21 C26.34 21.33 25.68 21.66 25 22 C25 21.34 25 20.68 25 20 C24.48179687 19.78085937 23.96359375 19.56171875 23.4296875 19.3359375 C20.02703221 17.46502414 17.14119975 15.05845203 14.125 12.625 C10.70381826 9.87333985 7.33965898 7.17164946 3.6171875 4.8359375 C1 3 1 3 0 0 Z " fill="#E0F2FC" transform="translate(660,371)"/>
<path d="M0 0 C0 0.99 0 1.98 0 3 C-0.66 3.66 -1.32 4.32 -2 5 C14.83 5.33 31.66 5.66 49 6 C49 6.33 49 6.66 49 7 C33.49 7 17.98 7 2 7 C2 7.66 2 8.32 2 9 C-0.64 8.34 -3.28 7.68 -6 7 C-4.77065985 3.31197956 -3.06140622 2.27643027 0 0 Z " fill="#F0F4F6" transform="translate(100,543)"/>
<path d="M0 0 C5.03823596 0.478011 8.13876391 2.93739907 12.0625 5.875 C12.67416016 6.32230469 13.28582031 6.76960938 13.91601562 7.23046875 C15.6177469 8.47779178 17.31075478 9.73583837 19 11 C19.80308594 11.60070312 20.60617187 12.20140625 21.43359375 12.8203125 C21.95050781 13.20960938 22.46742188 13.59890625 23 14 C22.67 14.99 22.34 15.98 22 17 C21.56171875 16.6596875 21.1234375 16.319375 20.671875 15.96875 C15.40068025 11.94035727 9.93484899 8.30492831 4.34375 4.734375 C3.5703125 4.16203125 2.796875 3.5896875 2 3 C2 2.34 2 1.68 2 1 C1.34 0.67 0.68 0.34 0 0 Z " fill="#E7F5FA" transform="translate(745,284)"/>
<path d="M0 0 C6.58651971 2.00459296 13.28631907 3.48563588 20 5 C20 5.33 20 5.66 20 6 C14.21626647 6.23607076 9.57782519 5.74990594 4 4 C2.68 4 1.36 4 0 4 C0 3.34 0 2.68 0 2 C-3.3 1.67 -6.6 1.34 -10 1 C-10 0.67 -10 0.34 -10 0 C-3.375 -1.125 -3.375 -1.125 0 0 Z " fill="#DAEEF9" transform="translate(640,241)"/>
<path d="M0 0 C0.33 0.66 0.66 1.32 1 2 C1.99 1.67 2.98 1.34 4 1 C4.33 1.66 4.66 2.32 5 3 C5.99 3 6.98 3 8 3 C8 3.66 8 4.32 8 5 C8.99 4.67 9.98 4.34 11 4 C13.6875 4.9375 13.6875 4.9375 16 6 C16 6.66 16 7.32 16 8 C16.66 8.33 17.32 8.66 18 9 C10.73763698 7.69039355 4.6169252 5.24043814 -2 2 C-1.34 1.34 -0.68 0.68 0 0 Z " fill="#B7D9FA" transform="translate(436,751)"/>
<path d="M0 0 C0.33 0 0.66 0 1 0 C1 5.28 1 10.56 1 16 C0.67 16 0.34 16 0 16 C-0.33 17.65 -0.66 19.3 -1 21 C-1.33 21 -1.66 21 -2 21 C-2.22424141 13.63740707 -1.90120099 7.12950371 0 0 Z " fill="#C0DFFB" transform="translate(277,456)"/>
<path d="M0 0 C1.27310312 0.93441535 2.543388 1.87267111 3.8125 2.8125 C4.52019531 3.33457031 5.22789062 3.85664062 5.95703125 4.39453125 C7.78531393 5.83128877 9.39896688 7.31815763 11 9 C10.67 9.99 10.34 10.98 10 12 C8.32737283 10.38113585 6.66204463 8.7547271 5 7.125 C4.071875 6.22007812 3.14375 5.31515625 2.1875 4.3828125 C0 2 0 2 0 0 Z " fill="#D6EFFC" transform="translate(708,617)"/>
<path d="M0 0 C0 0.99 0 1.98 0 3 C-0.66 3.66 -1.32 4.32 -2 5 C0.97 5.495 0.97 5.495 4 6 C3.01 6.495 3.01 6.495 2 7 C2 7.66 2 8.32 2 9 C-0.64 8.34 -3.28 7.68 -6 7 C-4.77065985 3.31197956 -3.06140622 2.27643027 0 0 Z " fill="#EAEDEF" transform="translate(100,543)"/>
<path d="M0 0 C0 0.66 0 1.32 0 2 C-1.32 2 -2.64 2 -4 2 C-4.33 2.66 -4.66 3.32 -5 4 C-7.31 3.67 -9.62 3.34 -12 3 C-7.78372195 0.18914797 -4.97048208 -0.11045516 0 0 Z " fill="#DBF0FD" transform="translate(536,351)"/>
<path d="M0 0 C-1.45264038 0.8638129 -2.9123163 1.71580454 -4.375 2.5625 C-5.59316406 3.27599609 -5.59316406 3.27599609 -6.8359375 4.00390625 C-7.55007813 4.33261719 -8.26421875 4.66132813 -9 5 C-9.66 4.67 -10.32 4.34 -11 4 C-8.32997607 0.73663741 -4.08378642 -2.04189321 0 0 Z " fill="#D4EEFC" transform="translate(419,275)"/>
<path d="M0 0 C0.99 0.33 1.98 0.66 3 1 C3.33 1.99 3.66 2.98 4 4 C4.99 4.33 5.98 4.66 7 5 C7 5.99 7 6.98 7 8 C3.2047869 6.50902342 1.38957269 4.24299151 -1 1 C-0.67 0.67 -0.34 0.34 0 0 Z " fill="#DFF2FC" transform="translate(688,392)"/>
<path d="M0 0 C-2.3500189 2.72107452 -4.55674975 3.96702492 -8 5 C-8.99 4.67 -9.98 4.34 -11 4 C-9.68 3.67 -8.36 3.34 -7 3 C-7 2.34 -7 1.68 -7 1 C-4.53721199 -0.231394 -2.7204945 -0.07159196 0 0 Z " fill="#D4EEFD" transform="translate(447,261)"/>
<path d="M0 0 C2.375 0.6875 2.375 0.6875 5 2 C6.3125 4.625 6.3125 4.625 7 7 C3.08597051 5.73058503 1.20927127 4.48832306 -1 1 C-0.67 0.67 -0.34 0.34 0 0 Z " fill="#B7DAFA" transform="translate(374,715)"/>
<path d="M0 0 C6.875 3.625 6.875 3.625 8 7 C5 7 5 7 2.3125 4.625 C0 2 0 2 0 0 Z " fill="#B9DBFA" transform="translate(337,682)"/>
<path d="M0 0 C0.66 0.33 1.32 0.66 2 1 C1.01 1.33 0.02 1.66 -1 2 C-1.33 3.65 -1.66 5.3 -2 7 C-2.99 7.33 -3.98 7.66 -5 8 C-4.690625 7.401875 -4.38125 6.80375 -4.0625 6.1875 C-2.89790296 3.91043228 -2.89790296 3.91043228 -2 1 C-1.34 0.67 -0.68 0.34 0 0 Z " fill="#ECF8FD" transform="translate(765,318)"/>
<path d="M0 0 C2.25 0.25 2.25 0.25 4 1 C2.02 2.32 0.04 3.64 -2 5 C-2.66 4.67 -3.32 4.34 -4 4 C-2.25 1.9375 -2.25 1.9375 0 0 Z " fill="#D2ECFD" transform="translate(402,281)"/>
<path d="M0 0 C1.32 0.33 2.64 0.66 4 1 C3.01 1.33 2.02 1.66 1 2 C0.67 1.34 0.34 0.68 0 0 Z " fill="#B6D6F4" transform="translate(499,774)"/>
<path d="M0 0 C1.98 0 3.96 0 6 0 C6 0.33 6 0.66 6 1 C4.02 1 2.04 1 0 1 C0 0.67 0 0.34 0 0 Z " fill="#D8EDFC" transform="translate(584,351)"/>
<path d="M0 0 C0 0.66 0 1.32 0 2 C-1.32 1.67 -2.64 1.34 -4 1 C-2 0 -2 0 0 0 Z " fill="#D2EAF9" transform="translate(504,240)"/>
<path d="M0 0 C1.65 0 3.3 0 5 0 C5 0.33 5 0.66 5 1 C3.35 1 1.7 1 0 1 C0 0.67 0 0.34 0 0 Z " fill="#B8D9F5" transform="translate(608,775)"/>
<path d="M0 0 C1.65 0 3.3 0 5 0 C5 0.33 5 0.66 5 1 C3.35 1 1.7 1 0 1 C0 0.67 0 0.34 0 0 Z " fill="#BAD8F5" transform="translate(613,774)"/>
<path d="M0 0 C0.33 0 0.66 0 1 0 C1 1.65 1 3.3 1 5 C0.67 5 0.34 5 0 5 C0 3.35 0 1.7 0 0 Z " fill="#D1EAFE" transform="translate(272,526)"/>
<path d="M0 0 C0.99 0.33 1.98 0.66 3 1 C2.01 1 1.02 1 0 1 C0 0.67 0 0.34 0 0 Z " fill="#B8D6F5" transform="translate(542,779)"/>
<path d="M0 0 C4 1 4 1 4 1 Z " fill="#B8D6F5" transform="translate(535,779)"/>
<path d="M0 0 C4 1 4 1 4 1 Z " fill="#BBDCF7" transform="translate(644,767)"/>
<path d="M0 0 C0.99 0.495 0.99 0.495 2 1 C1.67 1.66 1.34 2.32 1 3 C0.67 2.01 0.34 1.02 0 0 Z " fill="#CDE7FB" transform="translate(742,649)"/>
<path d="M0 0 C0.99 0.33 1.98 0.66 3 1 C2.01 1 1.02 1 0 1 C0 0.67 0 0.34 0 0 Z " fill="#DAEFFE" transform="translate(623,358)"/>
<path d="M0 0 C4 1 4 1 4 1 Z " fill="#D1EAFC" transform="translate(472,248)"/>
<path d="M0 0 C4 1 4 1 4 1 Z " fill="#D7ECFA" transform="translate(572,234)"/>
<path d="M0 0 C0.66 0 1.32 0 2 0 C1.67 0.66 1.34 1.32 1 2 C0.67 1.34 0.34 0.68 0 0 Z " fill="#BAD9F5" transform="translate(582,778)"/>
<path d="M0 0 C0.99 0.495 0.99 0.495 2 1 C1.01 1.495 1.01 1.495 0 2 C0 1.34 0 0.68 0 0 Z " fill="#B4D5F7" transform="translate(467,766)"/>
<path d="M0 0 C3 1 3 1 3 1 Z " fill="#C3E1FC" transform="translate(616,648)"/>
<path d="M0 0 C0.66 0 1.32 0 2 0 C1.67 0.66 1.34 1.32 1 2 C0.67 1.34 0.34 0.68 0 0 Z " fill="#CCE8FC" transform="translate(734,641)"/>
<path d="" fill="#D0E9FE" transform="translate(0,0)"/>
<path d="M0 0 C3 1 3 1 3 1 Z " fill="#F5F9FA" transform="translate(136,453)"/>
<path d="M0 0 C0.99 0.495 0.99 0.495 2 1 C1.01 1.495 1.01 1.495 0 2 C0 1.34 0 0.68 0 0 Z " fill="#CBE6FC" transform="translate(428,430)"/>
<path d="" fill="#CAE3FD" transform="translate(0,0)"/>
<path d="M0 0 C0.33 0.66 0.66 1.32 1 2 C0.34 1.67 -0.32 1.34 -1 1 C-0.67 0.67 -0.34 0.34 0 0 Z " fill="#D0E8FD" transform="translate(517,358)"/>
<path d="M0 0 C0.99 0.495 0.99 0.495 2 1 C1.01 1.495 1.01 1.495 0 2 C0 1.34 0 0.68 0 0 Z " fill="#DBF0FC" transform="translate(616,356)"/>
<path d="M0 0 C3 1 3 1 3 1 Z " fill="#D6ECFC" transform="translate(533,354)"/>
<path d="M0 0 C3 1 3 1 3 1 Z " fill="#D5ECFD" transform="translate(563,351)"/>
<path d="M0 0 C0.99 0.495 0.99 0.495 2 1 C1.01 1.495 1.01 1.495 0 2 C0 1.34 0 0.68 0 0 Z " fill="#C7E3F8" transform="translate(346,322)"/>
<path d="M0 0 C3 1 3 1 3 1 Z " fill="#CDE8FC" transform="translate(449,256)"/>
<path d="M0 0 C3 1 3 1 3 1 Z " fill="#D9EEFA" transform="translate(653,243)"/>
<path d="M0 0 C3 1 3 1 3 1 Z " fill="#D9EFFB" transform="translate(649,242)"/>
<path d="M0 0 C3 1 3 1 3 1 Z " fill="#D2EAFA" transform="translate(505,240)"/>
<path d="M0 0 C3 1 3 1 3 1 Z " fill="#D7EDFA" transform="translate(585,234)"/>
<path d="M0 0 C2 1 2 1 2 1 Z " fill="#BCD9F6" transform="translate(574,779)"/>
<path d="" fill="#B5D6F7" transform="translate(0,0)"/>
<path d="M0 0 C2 1 2 1 2 1 Z " fill="#B6D6F6" transform="translate(469,767)"/>
<path d="M0 0 C2 1 2 1 2 1 Z " fill="#BCDAF7" transform="translate(648,766)"/>
<path d="M0 0 C2 1 2 1 2 1 Z " fill="#BCDCF6" transform="translate(668,759)"/>
<path d="M0 0 C2 1 2 1 2 1 Z " fill="#B5D5F6" transform="translate(427,751)"/>
<path d="" fill="#B6D5F7" transform="translate(0,0)"/>
<path d="M0 0 C2 1 2 1 2 1 Z " fill="#BDDCF7" transform="translate(704,743)"/>
<path d="M0 0 C2 1 2 1 2 1 Z " fill="#B5D6F6" transform="translate(411,743)"/>
<path d="M0 0 C2 1 2 1 2 1 Z " fill="#C0DFF6" transform="translate(717,735)"/>
<path d="M0 0 C2 1 2 1 2 1 Z " fill="#C2DEF7" transform="translate(724,731)"/>
<path d="M0 0 C2 1 2 1 2 1 Z " fill="#C1DEF6" transform="translate(729,727)"/>
<path d="M0 0 C2 1 2 1 2 1 Z " fill="#C2E0F6" transform="translate(741,719)"/>
<path d="M0 0 C2 1 2 1 2 1 Z " fill="#C6E2FD" transform="translate(608,650)"/>
<path d="M0 0 C2 1 2 1 2 1 Z " fill="#CAE7FE" transform="translate(649,635)"/>
<path d="" fill="#BEDDF8" transform="translate(0,0)"/>
<path d="" fill="#BCDCFA" transform="translate(0,0)"/>
<path d="" fill="#C3E1FD" transform="translate(0,0)"/>
<path d="" fill="#C6E3FD" transform="translate(0,0)"/>
<path d="" fill="#CDE6FD" transform="translate(0,0)"/>
<path d="" fill="#CBE6FC" transform="translate(0,0)"/>
<path d="" fill="#D3EAFE" transform="translate(0,0)"/>
<path d="M0 0 C2 1 2 1 2 1 Z " fill="#F7FAFA" transform="translate(886,523)"/>
<path d="" fill="#F0F6FA" transform="translate(0,0)"/>
<path d="" fill="#E0F1FD" transform="translate(0,0)"/>
<path d="M0 0 C2 1 2 1 2 1 Z " fill="#FDFFFF" transform="translate(201,483)"/>
<path d="" fill="#D5EDFF" transform="translate(0,0)"/>
<path d="M0 0 C2 1 2 1 2 1 Z " fill="#F5F8F9" transform="translate(132,453)"/>
<path d="M0 0 C2 1 2 1 2 1 Z " fill="#DDF0FB" transform="translate(672,383)"/>
<path d="" fill="#DFF1FE" transform="translate(0,0)"/>
<path d="M0 0 C2 1 2 1 2 1 Z " fill="#CDE9FB" transform="translate(470,382)"/>
<path d="M0 0 C2 1 2 1 2 1 Z " fill="#D2EAFD" transform="translate(519,358)"/>
<path d="M0 0 C2 1 2 1 2 1 Z " fill="#D6EBFC" transform="translate(592,351)"/>
<path d="M0 0 C2 1 2 1 2 1 Z " fill="#D9EEFD" transform="translate(576,351)"/>
<path d="M0 0 C2 1 2 1 2 1 Z " fill="#D7EDFD" transform="translate(568,351)"/>
<path d="" fill="#C7E3F9" transform="translate(0,0)"/>
<path d="M0 0 C2 1 2 1 2 1 Z " fill="#C9E3F8" transform="translate(400,280)"/>
<path d="M0 0 C2 1 2 1 2 1 Z " fill="#CBE6FA" transform="translate(409,275)"/>
<path d="M0 0 C2 1 2 1 2 1 Z " fill="#DCF1FA" transform="translate(730,272)"/>
<path d="M0 0 C2 1 2 1 2 1 Z " fill="#DAEEF9" transform="translate(684,252)"/>
<path d="M0 0 C2 1 2 1 2 1 Z " fill="#D0E7FA" transform="translate(463,251)"/>
<path d="M0 0 C2 1 2 1 2 1 Z " fill="#D0E8FA" transform="translate(466,250)"/>
<path d="M0 0 C2 1 2 1 2 1 Z " fill="#D0E8F8" transform="translate(484,245)"/>
<path d="M0 0 C2 1 2 1 2 1 Z " fill="#D9ECFB" transform="translate(643,241)"/>
<path d="M0 0 C2 1 2 1 2 1 Z " fill="#D9ECFB" transform="translate(599,235)"/>
<path d="" fill="#D5ECFB" transform="translate(0,0)"/>
<path d="M0 0 C2 1 2 1 2 1 Z " fill="#D6EAFC" transform="translate(545,235)"/>
<path d="" fill="#777F84" transform="translate(0,0)"/>
<path d="" fill="#B8D6F3" transform="translate(0,0)"/>
<path d="" fill="#BAD8F5" transform="translate(0,0)"/>
<path d="" fill="#B9D6F5" transform="translate(0,0)"/>
<path d="" fill="#BBD9F6" transform="translate(0,0)"/>
<path d="" fill="#BDDBF7" transform="translate(0,0)"/>
<path d="" fill="#B8D7F6" transform="translate(0,0)"/>
<path d="" fill="#B7D7F5" transform="translate(0,0)"/>
<path d="" fill="#BBD9F4" transform="translate(0,0)"/>
<path d="" fill="#B8D7F6" transform="translate(0,0)"/>
<path d="" fill="#B8D9F7" transform="translate(0,0)"/>
<path d="" fill="#B5D6F7" transform="translate(0,0)"/>
<path d="" fill="#BBDAF7" transform="translate(0,0)"/>
<path d="" fill="#B5D4F6" transform="translate(0,0)"/>
<path d="" fill="#BDD7F4" transform="translate(0,0)"/>
<path d="" fill="#B5D5F7" transform="translate(0,0)"/>
<path d="" fill="#BCD8F7" transform="translate(0,0)"/>
<path d="" fill="#B7D6F6" transform="translate(0,0)"/>
<path d="" fill="#B5D5F7" transform="translate(0,0)"/>
<path d="" fill="#B6D7F6" transform="translate(0,0)"/>
<path d="" fill="#BCDCF7" transform="translate(0,0)"/>
<path d="" fill="#BFDCF8" transform="translate(0,0)"/>
<path d="" fill="#B7D6F8" transform="translate(0,0)"/>
<path d="" fill="#B4D2F5" transform="translate(0,0)"/>
<path d="" fill="#BBDCF6" transform="translate(0,0)"/>
<path d="" fill="#B4D6F8" transform="translate(0,0)"/>
<path d="" fill="#B3D5F7" transform="translate(0,0)"/>
<path d="" fill="#B5D4F4" transform="translate(0,0)"/>
<path d="" fill="#B7D6F6" transform="translate(0,0)"/>
<path d="" fill="#B5D6F6" transform="translate(0,0)"/>
<path d="" fill="#BEDCF7" transform="translate(0,0)"/>
<path d="" fill="#BCDAF7" transform="translate(0,0)"/>
<path d="" fill="#B6D7F7" transform="translate(0,0)"/>
<path d="" fill="#BCDCF7" transform="translate(0,0)"/>
<path d="" fill="#B4D5F9" transform="translate(0,0)"/>
<path d="" fill="#B4D4F8" transform="translate(0,0)"/>
<path d="" fill="#B4D5FA" transform="translate(0,0)"/>
<path d="" fill="#B3D5F6" transform="translate(0,0)"/>
<path d="" fill="#C1DCF8" transform="translate(0,0)"/>
<path d="" fill="#B3D5F6" transform="translate(0,0)"/>
<path d="" fill="#B4D3F5" transform="translate(0,0)"/>
<path d="" fill="#C3DEF5" transform="translate(0,0)"/>
<path d="" fill="#B4D5F7" transform="translate(0,0)"/>
<path d="" fill="#C5E1F7" transform="translate(0,0)"/>
<path d="" fill="#C7E1F8" transform="translate(0,0)"/>
<path d="" fill="#B3D6F5" transform="translate(0,0)"/>
<path d="" fill="#B5D4F3" transform="translate(0,0)"/>
<path d="" fill="#C6E2F8" transform="translate(0,0)"/>
<path d="" fill="#C7E1F5" transform="translate(0,0)"/>
<path d="" fill="#B3D6F4" transform="translate(0,0)"/>
<path d="" fill="#B3D4F6" transform="translate(0,0)"/>
<path d="" fill="#CBE6F8" transform="translate(0,0)"/>
<path d="" fill="#B8D7F6" transform="translate(0,0)"/>
<path d="" fill="#B6D7F8" transform="translate(0,0)"/>
<path d="" fill="#B9D7F8" transform="translate(0,0)"/>
<path d="" fill="#CCE7FB" transform="translate(0,0)"/>
<path d="" fill="#CBE6FB" transform="translate(0,0)"/>
<path d="" fill="#C6E2FD" transform="translate(0,0)"/>
<path d="" fill="#C6E3FE" transform="translate(0,0)"/>
<path d="" fill="#C6E4FF" transform="translate(0,0)"/>
<path d="" fill="#BAD9F7" transform="translate(0,0)"/>
<path d="" fill="#C2E1FD" transform="translate(0,0)"/>
<path d="" fill="#C3E2FC" transform="translate(0,0)"/>
<path d="" fill="#C1E1FC" transform="translate(0,0)"/>
<path d="" fill="#C3E3FF" transform="translate(0,0)"/>
<path d="" fill="#C1E0FC" transform="translate(0,0)"/>
<path d="" fill="#BAD7F7" transform="translate(0,0)"/>
<path d="" fill="#B9D9F9" transform="translate(0,0)"/>
<path d="" fill="#C3E1FC" transform="translate(0,0)"/>
<path d="" fill="#BCDAF7" transform="translate(0,0)"/>
<path d="" fill="#C9E7FE" transform="translate(0,0)"/>
<path d="" fill="#C9E5FD" transform="translate(0,0)"/>
<path d="" fill="#BFE0FC" transform="translate(0,0)"/>
<path d="" fill="#CCE6FD" transform="translate(0,0)"/>
<path d="" fill="#CBE5F9" transform="translate(0,0)"/>
<path d="" fill="#BEDEF9" transform="translate(0,0)"/>
<path d="" fill="#CFE9FE" transform="translate(0,0)"/>
<path d="" fill="#BEDDF9" transform="translate(0,0)"/>
<path d="" fill="#BDDCF9" transform="translate(0,0)"/>
<path d="" fill="#BEE1FC" transform="translate(0,0)"/>
<path d="" fill="#D3ECFF" transform="translate(0,0)"/>
<path d="" fill="#C0DDFA" transform="translate(0,0)"/>
<path d="" fill="#C1DEF8" transform="translate(0,0)"/>
<path d="" fill="#C2DDF9" transform="translate(0,0)"/>
<path d="" fill="#C2DFFA" transform="translate(0,0)"/>
<path d="" fill="#C2E0FC" transform="translate(0,0)"/>
<path d="" fill="#C1DEF9" transform="translate(0,0)"/>
<path d="" fill="#C1DEF9" transform="translate(0,0)"/>
<path d="" fill="#C2E0FC" transform="translate(0,0)"/>
<path d="" fill="#C1E0FA" transform="translate(0,0)"/>
<path d="" fill="#C3E2FB" transform="translate(0,0)"/>
<path d="" fill="#C4E1FB" transform="translate(0,0)"/>
<path d="" fill="#C8E2FC" transform="translate(0,0)"/>
<path d="" fill="#C9E4FC" transform="translate(0,0)"/>
<path d="" fill="#F2F7FB" transform="translate(0,0)"/>
<path d="" fill="#F3F8FB" transform="translate(0,0)"/>
<path d="" fill="#F6F8FC" transform="translate(0,0)"/>
<path d="" fill="#E5E9EB" transform="translate(0,0)"/>
<path d="" fill="#CBE6FD" transform="translate(0,0)"/>
<path d="" fill="#F4F6F9" transform="translate(0,0)"/>
<path d="" fill="#E7EAEB" transform="translate(0,0)"/>
<path d="" fill="#C9E7FD" transform="translate(0,0)"/>
<path d="" fill="#F8FBFA" transform="translate(0,0)"/>
<path d="" fill="#F7FAFC" transform="translate(0,0)"/>
<path d="" fill="#CCE7FE" transform="translate(0,0)"/>
<path d="" fill="#FDFDFC" transform="translate(0,0)"/>
<path d="" fill="#F0F3F3" transform="translate(0,0)"/>
<path d="" fill="#FBFDFE" transform="translate(0,0)"/>
<path d="" fill="#F8FAFB" transform="translate(0,0)"/>
<path d="" fill="#F9FBFF" transform="translate(0,0)"/>
<path d="" fill="#F9FAFC" transform="translate(0,0)"/>
<path d="" fill="#FCFCFE" transform="translate(0,0)"/>
<path d="" fill="#FCFCFF" transform="translate(0,0)"/>
<path d="" fill="#FCFFFF" transform="translate(0,0)"/>
<path d="" fill="#F8FCFE" transform="translate(0,0)"/>
<path d="" fill="#FEFFFF" transform="translate(0,0)"/>
<path d="" fill="#F8FAFB" transform="translate(0,0)"/>
<path d="" fill="#FDFEFE" transform="translate(0,0)"/>
<path d="" fill="#FEFFFF" transform="translate(0,0)"/>
<path d="" fill="#F5F6F9" transform="translate(0,0)"/>
<path d="" fill="#DEF0FE" transform="translate(0,0)"/>
<path d="" fill="#FFFFFF" transform="translate(0,0)"/>
<path d="" fill="#FBFDFE" transform="translate(0,0)"/>
<path d="" fill="#EDF0F1" transform="translate(0,0)"/>
<path d="" fill="#FDFDFF" transform="translate(0,0)"/>
<path d="" fill="#FCFEFE" transform="translate(0,0)"/>
<path d="" fill="#E7EAEC" transform="translate(0,0)"/>
<path d="" fill="#FBFCFD" transform="translate(0,0)"/>
<path d="" fill="#F5F6F6" transform="translate(0,0)"/>
<path d="" fill="#F5F9F9" transform="translate(0,0)"/>
<path d="" fill="#F3F6F6" transform="translate(0,0)"/>
<path d="" fill="#F5FAF9" transform="translate(0,0)"/>
<path d="" fill="#FEFFFF" transform="translate(0,0)"/>
<path d="" fill="#FCFDFE" transform="translate(0,0)"/>
<path d="" fill="#FAFDFD" transform="translate(0,0)"/>
<path d="" fill="#FEFEFF" transform="translate(0,0)"/>
<path d="" fill="#F6F8F9" transform="translate(0,0)"/>
<path d="" fill="#F8FAFB" transform="translate(0,0)"/>
<path d="" fill="#FDFDFF" transform="translate(0,0)"/>
<path d="" fill="#FBFDFF" transform="translate(0,0)"/>
<path d="" fill="#FBFFFF" transform="translate(0,0)"/>
<path d="" fill="#D9EFFF" transform="translate(0,0)"/>
<path d="" fill="#D8EFFE" transform="translate(0,0)"/>
<path d="" fill="#FCFEFE" transform="translate(0,0)"/>
<path d="" fill="#F8FAF9" transform="translate(0,0)"/>
<path d="" fill="#D7EDFF" transform="translate(0,0)"/>
<path d="" fill="#FBFCFC" transform="translate(0,0)"/>
<path d="" fill="#F8FAFD" transform="translate(0,0)"/>
<path d="" fill="#D8EBFF" transform="translate(0,0)"/>
<path d="" fill="#F7FDFD" transform="translate(0,0)"/>
<path d="" fill="#F1F5F7" transform="translate(0,0)"/>
<path d="" fill="#F9FDFC" transform="translate(0,0)"/>
<path d="" fill="#D3EBFF" transform="translate(0,0)"/>
<path d="" fill="#F8FCFF" transform="translate(0,0)"/>
<path d="" fill="#F8FAFA" transform="translate(0,0)"/>
<path d="" fill="#F2F3F6" transform="translate(0,0)"/>
<path d="" fill="#F7F9FB" transform="translate(0,0)"/>
<path d="" fill="#D2EAFF" transform="translate(0,0)"/>
<path d="" fill="#F9FCFC" transform="translate(0,0)"/>
<path d="" fill="#F7FCFD" transform="translate(0,0)"/>
<path d="" fill="#F7FAFC" transform="translate(0,0)"/>
<path d="" fill="#E5E7E9" transform="translate(0,0)"/>
<path d="" fill="#F9FBFC" transform="translate(0,0)"/>
<path d="" fill="#F9FBFC" transform="translate(0,0)"/>
<path d="" fill="#D2EBFC" transform="translate(0,0)"/>
<path d="" fill="#F2F8FA" transform="translate(0,0)"/>
<path d="" fill="#CFE9FC" transform="translate(0,0)"/>
<path d="" fill="#CFEBFF" transform="translate(0,0)"/>
<path d="" fill="#CFE9FD" transform="translate(0,0)"/>
<path d="" fill="#D1E9FC" transform="translate(0,0)"/>
<path d="" fill="#CAE5FD" transform="translate(0,0)"/>
<path d="" fill="#CEE8FF" transform="translate(0,0)"/>
<path d="" fill="#CDE6FD" transform="translate(0,0)"/>
<path d="" fill="#CDE6FC" transform="translate(0,0)"/>
<path d="" fill="#CBE6FA" transform="translate(0,0)"/>
<path d="" fill="#CEE9FC" transform="translate(0,0)"/>
<path d="" fill="#CAE6F9" transform="translate(0,0)"/>
<path d="" fill="#CAE8FB" transform="translate(0,0)"/>
<path d="" fill="#C8E6FD" transform="translate(0,0)"/>
<path d="" fill="#C8E4FA" transform="translate(0,0)"/>
<path d="" fill="#CEE9FC" transform="translate(0,0)"/>
<path d="" fill="#CDE9FD" transform="translate(0,0)"/>
<path d="" fill="#E2F1FE" transform="translate(0,0)"/>
<path d="" fill="#C9E4FB" transform="translate(0,0)"/>
<path d="" fill="#CCE7FA" transform="translate(0,0)"/>
<path d="" fill="#DEF2FC" transform="translate(0,0)"/>
<path d="" fill="#CFE9FC" transform="translate(0,0)"/>
<path d="" fill="#DFF1FE" transform="translate(0,0)"/>
<path d="" fill="#D0E9FD" transform="translate(0,0)"/>
<path d="" fill="#D1EAFF" transform="translate(0,0)"/>
<path d="" fill="#CFE8FD" transform="translate(0,0)"/>
<path d="" fill="#CEE9FE" transform="translate(0,0)"/>
<path d="" fill="#DFF2FE" transform="translate(0,0)"/>
<path d="" fill="#DEF1FF" transform="translate(0,0)"/>
<path d="" fill="#DBEFFA" transform="translate(0,0)"/>
<path d="" fill="#D0E8FD" transform="translate(0,0)"/>
<path d="" fill="#DEF0FB" transform="translate(0,0)"/>
<path d="" fill="#D1EAFD" transform="translate(0,0)"/>
<path d="" fill="#DBEDFC" transform="translate(0,0)"/>
<path d="" fill="#D0E9FD" transform="translate(0,0)"/>
<path d="" fill="#D1EAFC" transform="translate(0,0)"/>
<path d="" fill="#E1F0FC" transform="translate(0,0)"/>
<path d="" fill="#E1F3FC" transform="translate(0,0)"/>
<path d="" fill="#DEF0FA" transform="translate(0,0)"/>
<path d="" fill="#D2EBF9" transform="translate(0,0)"/>
<path d="" fill="#D2E9FC" transform="translate(0,0)"/>
<path d="" fill="#D1EAFC" transform="translate(0,0)"/>
<path d="" fill="#E1F2FD" transform="translate(0,0)"/>
<path d="" fill="#DFF1FD" transform="translate(0,0)"/>
<path d="" fill="#E1F3FC" transform="translate(0,0)"/>
<path d="" fill="#DBEFFB" transform="translate(0,0)"/>
<path d="" fill="#DFF2FB" transform="translate(0,0)"/>
<path d="" fill="#DBEFFD" transform="translate(0,0)"/>
<path d="" fill="#C3E0F6" transform="translate(0,0)"/>
<path d="" fill="#D6EBFE" transform="translate(0,0)"/>
<path d="" fill="#DCEEFE" transform="translate(0,0)"/>
<path d="" fill="#D5ECFE" transform="translate(0,0)"/>
<path d="" fill="#D5ECFC" transform="translate(0,0)"/>
<path d="" fill="#D9EEFA" transform="translate(0,0)"/>
<path d="" fill="#DFF2FC" transform="translate(0,0)"/>
<path d="" fill="#C5E0F9" transform="translate(0,0)"/>
<path d="" fill="#C7E1FA" transform="translate(0,0)"/>
<path d="" fill="#C3E0F6" transform="translate(0,0)"/>
<path d="" fill="#C6E4F9" transform="translate(0,0)"/>
<path d="" fill="#C7E3FA" transform="translate(0,0)"/>
<path d="" fill="#C7E4F8" transform="translate(0,0)"/>
<path d="" fill="#C4E2F8" transform="translate(0,0)"/>
<path d="" fill="#C6E2F8" transform="translate(0,0)"/>
<path d="" fill="#E0F0F8" transform="translate(0,0)"/>
<path d="" fill="#C7E3F7" transform="translate(0,0)"/>
<path d="" fill="#DDEFF6" transform="translate(0,0)"/>
<path d="" fill="#C9E1F6" transform="translate(0,0)"/>
<path d="" fill="#C8E3F9" transform="translate(0,0)"/>
<path d="" fill="#C7E2FA" transform="translate(0,0)"/>
<path d="" fill="#D8E6F1" transform="translate(0,0)"/>
<path d="" fill="#C8E2F9" transform="translate(0,0)"/>
<path d="" fill="#C7E2F8" transform="translate(0,0)"/>
<path d="" fill="#C9E3F7" transform="translate(0,0)"/>
<path d="" fill="#C7E3F9" transform="translate(0,0)"/>
<path d="" fill="#DDEEF6" transform="translate(0,0)"/>
<path d="" fill="#DBECF5" transform="translate(0,0)"/>
<path d="" fill="#C5E0F7" transform="translate(0,0)"/>
<path d="" fill="#CBE7F8" transform="translate(0,0)"/>
<path d="" fill="#C9E4F6" transform="translate(0,0)"/>
<path d="" fill="#CBE4FA" transform="translate(0,0)"/>
<path d="" fill="#C9E4F9" transform="translate(0,0)"/>
<path d="" fill="#DAEEF8" transform="translate(0,0)"/>
<path d="" fill="#E0EFF5" transform="translate(0,0)"/>
<path d="" fill="#DCF0F8" transform="translate(0,0)"/>
<path d="" fill="#CAE4F8" transform="translate(0,0)"/>
<path d="" fill="#C9E4F9" transform="translate(0,0)"/>
<path d="" fill="#DDEEFA" transform="translate(0,0)"/>
<path d="" fill="#CCE5F8" transform="translate(0,0)"/>
<path d="" fill="#DDF0FA" transform="translate(0,0)"/>
<path d="" fill="#CCE5FA" transform="translate(0,0)"/>
<path d="" fill="#DEF1FA" transform="translate(0,0)"/>
<path d="" fill="#CBE6F8" transform="translate(0,0)"/>
<path d="" fill="#CAE3F7" transform="translate(0,0)"/>
<path d="" fill="#D9EDF7" transform="translate(0,0)"/>
<path d="" fill="#CBE6F7" transform="translate(0,0)"/>
<path d="" fill="#CEE8FA" transform="translate(0,0)"/>
<path d="" fill="#CEE8F9" transform="translate(0,0)"/>
<path d="" fill="#DAEDF7" transform="translate(0,0)"/>
<path d="" fill="#DCF1FC" transform="translate(0,0)"/>
<path d="" fill="#DBEFFA" transform="translate(0,0)"/>
<path d="" fill="#D8EEFB" transform="translate(0,0)"/>
<path d="" fill="#D8EFFB" transform="translate(0,0)"/>
<path d="" fill="#DAEEFC" transform="translate(0,0)"/>
<path d="" fill="#D8EDFB" transform="translate(0,0)"/>
<path d="" fill="#D9EEFB" transform="translate(0,0)"/>
<path d="" fill="#D0E8F9" transform="translate(0,0)"/>
<path d="" fill="#D9EBF9" transform="translate(0,0)"/>
<path d="" fill="#D1E8FC" transform="translate(0,0)"/>
<path d="" fill="#D8EFFA" transform="translate(0,0)"/>
<path d="" fill="#D8EDFA" transform="translate(0,0)"/>
<path d="" fill="#D2EAF9" transform="translate(0,0)"/>
<path d="" fill="#D0E8F8" transform="translate(0,0)"/>
<path d="" fill="#D8ECF9" transform="translate(0,0)"/>
<path d="" fill="#D6ECF9" transform="translate(0,0)"/>
<path d="" fill="#DBEDFA" transform="translate(0,0)"/>
<path d="" fill="#D7EEFB" transform="translate(0,0)"/>
<path d="" fill="#D8EDFC" transform="translate(0,0)"/>
<path d="" fill="#D9EEFC" transform="translate(0,0)"/>
<path d="" fill="#D8ECFA" transform="translate(0,0)"/>
<path d="" fill="#D9EEFC" transform="translate(0,0)"/>
<path d="" fill="#D6EBFB" transform="translate(0,0)"/>
<path d="" fill="#D5ECF9" transform="translate(0,0)"/>
<path d="" fill="#D7EDFB" transform="translate(0,0)"/>
<path d="" fill="#D6ECFA" transform="translate(0,0)"/>
<path d="" fill="#D2ECFA" transform="translate(0,0)"/>
</svg>
